<?xml version="1.0" encoding="UTF-8" standalone="no"?>
<!-- Created with Inkscape (http://www.inkscape.org/) -->

<svg
   width="512"
   height="512"
   viewBox="0 0 512 512"
   version="1.1"
   id="svg1"
   inkscape:version="1.3 (0e150ed6c4, 2023-07-21)"
   sodipodi:docname="RefTheCord.svg"
   xmlns:inkscape="http://www.inkscape.org/namespaces/inkscape"
   xmlns:sodipodi="http://sodipodi.sourceforge.net/DTD/sodipodi-0.dtd"
   xmlns="http://www.w3.org/2000/svg"
   xmlns:svg="http://www.w3.org/2000/svg">
  <sodipodi:namedview
     id="namedview1"
     pagecolor="#ffffff"
     bordercolor="#000000"
     borderopacity="0.25"
     inkscape:showpageshadow="2"
     inkscape:pageopacity="0.0"
     inkscape:pagecheckerboard="0"
     inkscape:deskcolor="#d1d1d1"
     inkscape:document-units="px"
     inkscape:zoom="0.4609375"
     inkscape:cx="254.91525"
     inkscape:cy="254.91525"
     inkscape:window-width="1920"
     inkscape:window-height="1057"
     inkscape:window-x="0"
     inkscape:window-y="0"
     inkscape:window-maximized="1"
     inkscape:current-layer="layer1" />
  <defs
     id="defs1" />
  <g
     inkscape:label="Layer 1"
     inkscape:groupmode="layer"
     id="layer1">
    <rect
       style="fill:#5865f2;fill-opacity:1;stroke-width:1.01225"
       id="rect2"
       width="512"
       height="512"
       x="0"
       y="0" />
    <path
       id="rect1"
       style="fill:#ffffff;fill-opacity:1;stroke-width:0.917643"
       d="M 355.58008 80.353516 A 108.71245 132.39744 11.253343 0 0 271.91992 114.43164 L 65 284.02344 L 123.05469 400 L 250.12695 295.85156 A 108.71245 132.39744 11.253343 0 0 306.23047 339.67383 A 108.71245 132.39744 11.253343 0 0 443.90039 241.60938 A 108.71245 132.39744 11.253343 0 0 372.35156 83.474609 A 108.71245 132.39744 11.253343 0 0 355.58008 80.353516 z M 362.60938 241.63477 A 25 25 0 0 1 387.60938 266.63477 A 25 25 0 0 1 362.60938 291.63477 A 25 25 0 0 1 337.60938 266.63477 A 25 25 0 0 1 362.60938 241.63477 z " />
  </g>
</svg>
